<?xml version="1.0" encoding="utf-8"?>
<!-- Generator: Adobe Illustrator 24.1.1, SVG Export Plug-In . SVG Version: 6.00 Build 0)  -->
<svg version="1.1" id="Layer_1" xmlns="http://www.w3.org/2000/svg" xmlns:xlink="http://www.w3.org/1999/xlink" x="0px" y="0px"
	 viewBox="0 0 512 512" style="enable-background:new 0 0 512 512;" xml:space="preserve">
<style type="text/css">
	.st0{fill-rule:evenodd;clip-rule:evenodd;fill:#555555;}
</style>
<g>
	<path class="st0" d="M76.8,153.6c14.1,0,25.6,11.5,25.6,25.6v307.2c0,14.1-11.5,25.6-25.6,25.6H25.6C11.5,512,0,500.5,0,486.4
		V179.2c0-14.1,11.5-25.6,25.6-25.6H76.8z M214.1,307.2c14.1,0,25.6,11.5,25.6,25.6v153.6c0,14.1-11.5,25.6-25.6,25.6h-51.2
		c-14.1,0-25.6-11.5-25.6-25.6V332.8c0-14.1,11.5-25.6,25.6-25.6H214.1z M350.6,0c14.1,0,25.6,11.5,25.6,25.6v460.8
		c0,14.1-11.5,25.6-25.6,25.6h-51.2c-14.1,0-25.6-11.5-25.6-25.6V25.6c0-14.1,11.5-25.6,25.6-25.6H350.6z M486.4,0
		C500.5,0,512,11.5,512,25.6v460.8c0,14.1-11.5,25.6-25.6,25.6h-51.2c-14.1,0-25.6-11.5-25.6-25.6V25.6c0-14.1,11.5-25.6,25.6-25.6
		H486.4z"/>
</g>
</svg>
