<?xml version="1.0" encoding="utf-8"?>
<!-- Generator: Adobe Illustrator 21.0.0, SVG Export Plug-In . SVG Version: 6.00 Build 0)  -->
<svg version="1.1" id="Layer_1" xmlns="http://www.w3.org/2000/svg" xmlns:xlink="http://www.w3.org/1999/xlink" x="0px" y="0px"
	 viewBox="0 0 512 512" style="enable-background:new 0 0 512 512;" xml:space="preserve">
<style type="text/css">
	.st0{fill:#3F51B5;}
	.st1{fill:#00BCD4;}
</style>
<g>
	<circle class="st0" cx="40.4" cy="444.6" r="40.4"/>
	<circle class="st0" cx="148.2" cy="471.6" r="40.4"/>
	<circle class="st0" cx="256" cy="377.3" r="40.4"/>
	<circle class="st0" cx="363.8" cy="404.2" r="40.4"/>
	<circle class="st0" cx="471.6" cy="350.3" r="40.4"/>
	<polygon class="st0" points="459.5,326.1 361.1,375.9 249.3,347.6 141.5,441.9 47.2,419 33.7,470.2 154.9,501.2 262.7,406.9 
		366.5,432.5 483.7,374.6 	"/>
	<circle class="st1" cx="40.4" cy="202.1" r="40.4"/>
	<circle class="st1" cx="148.2" cy="229.1" r="40.4"/>
	<circle class="st1" cx="256" cy="134.7" r="40.4"/>
	<circle class="st1" cx="363.8" cy="202.1" r="40.4"/>
	<circle class="st1" cx="471.6" cy="40.4" r="40.4"/>
	<path class="st1" d="M448.7,25.6c-28.3,43.1-71.4,107.8-93,140.1c-16.2-9.4-41.8-26.9-86.2-53.9L252,101.1l-111.8,98.4l-94.3-22.9
		l-13.5,52.5l121.3,31l103.8-90.3c35,21.6,78.1,48.5,87.6,55.2l6.7,6.7l12.1-1.3c14.8-1.3,14.8-1.3,128-173.8L448.7,25.6z"/>
</g>
</svg>
